<?xml version="1.0" encoding="utf-8"?>
<!-- Generator: Adobe Illustrator 22.1.0, SVG Export Plug-In . SVG Version: 6.00 Build 0)  -->
<svg version="1.1" id="Layer_1" xmlns="http://www.w3.org/2000/svg" xmlns:xlink="http://www.w3.org/1999/xlink" x="0px" y="0px"
	 viewBox="0 0 512 512" style="enable-background:new 0 0 512 512;" xml:space="preserve">
<style type="text/css">
	.st0{fill:#D31D50;}
</style>
<g>
	<g transform="matrix(0.118758 0 0 0.118758 225.598 225.598)">
		<g>
			<g>
				<ellipse class="st0" cx="-1814.9" cy="2326.4" rx="10.1" ry="10.1"/>
			</g>
		</g>
		<g>
			<g>
				<ellipse class="st0" cx="348.7" cy="165.4" rx="10" ry="10.1"/>
			</g>
		</g>
		<g>
			<g>
				<path class="st0" d="M1455.8-912.6c-68-68.4-158.3-106-254.4-106c-96.1,0-186.5,37.7-254.4,106
					c-140.3,141.1-140.3,370.7,0,511.9c70.2,70.6,162.3,105.8,254.4,105.8c92.1,0,184.3-35.3,254.4-105.8
					C1596.1-541.8,1596.1-771.5,1455.8-912.6z M1336.2-521c-74.4,74.8-195.4,74.8-269.8,0c-74.4-74.8-74.4-196.5,0-271.3
					c36-36.2,83.9-56.2,134.9-56.2c51,0,98.8,20,134.9,56.2C1410.6-717.5,1410.6-595.8,1336.2-521z"/>
			</g>
		</g>
		<g>
			<g>
				<path class="st0" d="M-843.6,1572.7c-41.8-20.9-92.5-3.8-113.4,38.2l-100.7,203.4c-43.8,88.4-131.8,147.6-229.8,154.3
					l-117.1,8.1c-19.8,1.3-32.8-8.6-38.8-14.6c-6-6.1-15.9-19.2-14.6-39.1l8-117.8c6.7-98.6,65.5-187.2,153.4-231.2l202.2-101.3
					c41.8-20.9,58.8-72,38-114c-20.8-42-71.6-59.2-113.4-38.2l-202.2,101.3c-141.4,70.8-235.9,213.3-246.7,371.8l-8,117.8
					c-4.3,63.6,18.9,125.9,63.7,170.9c41.2,41.5,97,64.6,155,64.6c5,0,10-0.2,15-0.5l117.1-8.1c157.6-10.9,299.2-105.9,369.6-248.2
					l100.7-203.4C-784.8,1644.6-801.8,1593.6-843.6,1572.7z"/>
			</g>
		</g>
		<g>
			<g>
				<path class="st0" d="M2353.3-1843c-39.7-39.3-94.3-59.9-149.8-56.2l-78.7,5C1419-1848.9,758.4-1506.2,312.5-954L127.3-724.6
					l-484.9-14.3c-0.8,0-1.7,0-2.5,0c-384.5,0-746.1,150.6-1018,424.1l-496.6,499.5c-23.6,23.8-31.1,59.3-19.1,90.6
					c12,31.4,41.2,52.7,74.6,54.4L-768,384.1l-42.9,53.1c-21.6,26.8-25,64-8.6,94.2c16.5,30.5,33.7,60.4,51.7,89.9l-249.3,297.7
					c-21.3,25.5-25.9,61.1-11.8,91.2C-974.4,1126-902.1,1230-814,1319.3c90.3,91.5,195.8,166.4,313.7,222.5
					c11.5,5.5,23.9,8.2,36.1,8.2c19,0,37.9-6.5,53.3-19c53.7-43.8,115.6-95.8,175.5-146.1c42.7-35.8,86.4-72.5,127.2-106.3
					c24.4,14.7,49,29,74.1,42.7c12.7,6.9,26.5,10.3,40.4,10.3c18.4,0,36.7-6,51.8-17.9l57.6-45l54.2,1061.9
					c1.7,33.6,22.9,62.9,54.1,75c9.9,3.8,20.1,5.7,30.3,5.7c22,0,43.6-8.7,59.8-24.9L810.7,1887c271.9-273.5,421.7-637.2,421.7-1024
					V397.3l195.9-152.9c587.2-458.3,944.7-1149.4,981.1-1896.1l2-41.4C2414.2-1749.1,2393-1803.7,2353.3-1843z M-1620.7,169.8
					l362.2-364.3c239.7-241.1,558.3-374,897.2-374.3l354.4,10.5L-636,220.7L-1620.7,169.8z M-343.7,1254.4
					c-44.1,37-89.4,75-131.4,109.7c-81.2-44.2-154.7-99.4-218.9-164.6c-62.2-63.1-115.1-134.9-157.8-213.9l182.5-218
					c55.2,74.5,115.6,145,180.9,211.1c0.1,0.1,0.1,0.1,0.2,0.1c0,0,0,0,0.1,0.1c0,0,0.1,0,0.1,0.1
					c72.4,73.2,150.2,140.5,232.8,201.3C-284.5,1204.7-314.4,1229.7-343.7,1254.4z M1063.3,863.1c0,341.4-132.2,662.3-372.2,903.7
					L329,2131.1l-50.5-989.2l784.9-612.6L1063.3,863.1L1063.3,863.1z M2240.5-1660.1c-33.9,697-367.7,1342.2-915.9,1770L-1.2,1144.9
					c-110-64.6-212.4-140.9-306.2-227.4l447-449.6c33-33.2,33-87.1,0-120.3c-33-33.2-86.5-33.2-119.6,0l-446.6,449.2
					c-82.1-91.4-154.8-190.9-216.7-297.3L443.8-846.8c416.2-515.5,1032.9-835.4,1691.7-877.7l78.7-5c10.3-0.6,17.2,4.5,20.4,7.7
					c3.2,3.1,8.4,10,7.9,20.4L2240.5-1660.1z"/>
			</g>
		</g>
	</g>
</g>
</svg>
